<?xml version="1.0" standalone="no"?>
<!DOCTYPE svg PUBLIC "-//W3C//DTD SVG 20010904//EN"
 "http://www.w3.org/TR/2001/REC-SVG-20010904/DTD/svg10.dtd">
<svg version="1.0" xmlns="http://www.w3.org/2000/svg"
 width="241.000000pt" height="241.000000pt" viewBox="0 0 241.000000 241.000000"
 preserveAspectRatio="xMidYMid meet">
<metadata>
Created by potrace 1.11, written by Peter Selinger 2001-2013
</metadata>
<g transform="translate(0.000000,241.000000) scale(0.100000,-0.100000)"
fill="#000000" stroke="none">
<path d="M1067 2199 c-104 -14 -247 -66 -337 -121 -149 -91 -296 -249 -370
-398 -31 -62 -70 -163 -70 -182 0 -15 42 -5 51 12 4 8 30 63 58 121 63 133
146 239 254 325 473 377 1146 193 1384 -378 31 -76 39 -88 60 -88 20 0 23 3
17 28 -40 168 -205 400 -369 517 -188 134 -446 197 -678 164z"/>
<path d="M1165 1990 c-12 -17 -22 -25 -26 -18 -9 15 -56 -32 -74 -75 -8 -17
-14 -28 -15 -23 -1 21 -30 -19 -36 -50 -3 -19 -10 -34 -15 -34 -5 0 -14 -12
-19 -26 -15 -37 4 -97 40 -127 22 -19 26 -26 15 -31 -20 -7 -19 -30 1 -47 12
-10 57 -13 171 -14 153 0 156 0 171 24 14 21 14 24 -2 33 -15 9 -13 14 19 49
39 43 48 99 20 129 -8 9 -21 34 -29 56 -8 21 -18 38 -24 37 -5 -1 -15 11 -22
26 -14 36 -70 91 -70 70 0 -8 -12 1 -26 19 -32 40 -53 41 -79 2z m66 -26 c11
-13 11 -20 -1 -42 -20 -34 -36 -38 -50 -12 -26 49 17 94 51 54z m-93 -104 c-1
-13 -13 -27 -25 -31 -20 -7 -23 -5 -23 18 0 27 29 57 43 43 5 -4 7 -18 5 -30z
m182 -20 c0 -25 -29 -24 -48 2 -10 13 -10 23 -2 38 10 19 11 19 30 0 11 -11
20 -29 20 -40z m-81 -6 c28 -35 26 -56 -5 -94 l-27 -31 -28 27 c-33 31 -37 68
-13 102 20 29 48 28 73 -4z m-183 -71 c4 -55 3 -57 -11 -33 -15 27 -19 59 -9
85 10 26 16 10 20 -52z m319 -4 c-4 -15 -13 -34 -22 -41 -15 -12 -16 -9 -9 27
4 22 9 49 11 60 5 31 6 31 16 6 5 -14 7 -37 4 -52z m-55 -12 c0 -9 -11 -35
-25 -57 -29 -46 -50 -54 -35 -14 6 14 10 34 10 45 0 11 7 31 17 45 12 19 18
22 24 12 5 -7 9 -21 9 -31z m-179 -4 c18 -21 27 -32 19 -25 -23 20 -29 14 -19
-20 17 -62 14 -61 -52 20 -8 10 -8 20 0 38 6 13 12 24 14 24 2 0 19 -17 38
-37z m269 -28 c0 -8 -14 -29 -31 -47 -17 -18 -27 -27 -23 -19 5 11 2 13 -15 8
-16 -4 -10 5 21 33 50 45 48 44 48 25z m-350 -53 c-6 -2 -7 -9 -3 -15 8 -15
-27 11 -44 32 -28 32 -13 41 22 14 19 -15 30 -30 25 -31z m10 -76 c0 -3 -4 -8
-10 -11 -5 -3 -10 -1 -10 4 0 6 5 11 10 11 6 0 10 -2 10 -4z m74 -5 c6 -9 -64
-24 -72 -16 -5 5 36 23 55 24 6 1 14 -3 17 -8z m170 -1 c17 -6 26 -6 26 0 0 6
5 10 12 10 8 0 7 -5 -3 -16 -12 -11 -26 -14 -52 -9 -20 4 -34 11 -31 16 7 11
17 11 48 -1z"/>
<path d="M466 1303 c-11 -11 -6 -23 9 -23 8 0 15 4 15 9 0 13 -16 22 -24 14z"/>
<path d="M630 1281 c0 -28 -1 -29 -38 -24 -34 5 -42 1 -61 -23 -39 -49 2 -124
58 -108 14 4 34 6 44 6 15 -1 17 10 17 89 0 53 -4 89 -10 89 -5 0 -10 -13 -10
-29z m-9 -72 c14 -27 -6 -59 -37 -59 -17 0 -28 8 -36 26 -11 23 -10 29 10 45
26 20 48 16 63 -12z"/>
<path d="M1170 1281 c0 -28 -1 -29 -38 -24 -34 4 -42 1 -60 -22 -29 -36 -28
-60 4 -92 19 -19 31 -24 52 -19 15 4 35 7 45 7 15 0 17 11 17 90 0 53 -4 89
-10 89 -5 0 -10 -13 -10 -29z m-12 -94 c-2 -25 -8 -33 -26 -35 -49 -7 -70 44
-30 72 32 23 60 4 56 -37z"/>
<path d="M1444 1295 c-4 -8 -4 -47 -2 -86 4 -68 17 -94 42 -86 17 6 18 27 2
27 -13 0 -16 14 -16 80 0 48 -4 80 -10 80 -6 0 -13 -7 -16 -15z"/>
<path d="M2082 1298 c-7 -7 -12 -41 -12 -90 0 -63 3 -78 15 -78 11 0 15 12 15
49 0 40 3 50 20 54 11 3 20 10 20 16 0 6 -9 11 -20 11 -27 0 -25 18 3 22 12 2
21 8 20 13 -3 15 -46 18 -61 3z"/>
<path d="M320 1280 c-33 -33 -21 -56 42 -80 53 -19 58 -45 8 -44 -19 0 -41 2
-49 5 -7 2 -15 -1 -18 -8 -7 -19 66 -37 99 -24 54 20 41 81 -20 95 -66 14 -67
49 -1 45 42 -3 61 7 39 21 -26 17 -79 11 -100 -10z"/>
<path d="M1306 1287 c-12 -9 -17 -23 -14 -42 3 -25 10 -31 51 -44 33 -10 47
-19 45 -30 -3 -16 -52 -21 -87 -10 -7 2 -15 -1 -18 -8 -6 -15 59 -35 91 -27
61 15 60 75 -1 95 -76 24 -79 49 -7 49 44 0 58 12 28 24 -26 10 -69 7 -88 -7z"/>
<path d="M6 1278 c4 -7 18 -27 31 -44 l23 -31 -30 -39 c-16 -21 -30 -42 -30
-46 0 -12 129 -9 151 2 10 6 28 28 39 49 l19 39 -29 41 -30 41 -76 0 c-57 0
-73 -3 -68 -12z"/>
<path d="M2236 1259 c-34 -40 -33 -77 3 -117 28 -30 34 -32 100 -32 39 0 71 3
71 8 0 4 -14 25 -30 46 l-30 39 23 31 c43 58 44 56 -37 56 -71 0 -75 -1 -100
-31z"/>
<path d="M460 1195 c0 -51 3 -65 15 -65 12 0 15 14 15 65 0 51 -3 65 -15 65
-12 0 -15 -14 -15 -65z"/>
<path d="M760 1193 c0 -35 4 -63 10 -63 6 0 10 14 10 31 0 43 17 69 44 69 27
0 36 -17 36 -66 0 -19 5 -34 10 -34 6 0 10 25 10 55 0 63 -13 75 -78 72 l-42
-1 0 -63z"/>
<path d="M927 1242 c-21 -23 -22 -76 -1 -96 22 -22 59 -30 83 -16 34 18 25 31
-18 24 -23 -4 -41 -2 -45 4 -6 11 4 16 62 27 37 8 41 26 12 55 -25 25 -72 26
-93 2z m72 -33 c-19 -12 -59 -11 -59 1 0 17 33 29 54 18 15 -8 16 -12 5 -19z"/>
<path d="M1520 1233 c-37 -48 -7 -108 52 -104 18 1 41 2 51 2 14 0 17 10 17
62 l0 63 -49 2 c-43 2 -52 -2 -71 -25z m88 -46 c-2 -25 -8 -33 -26 -35 -49 -7
-70 44 -30 72 32 23 60 4 56 -37z"/>
<path d="M1680 1169 c0 -72 3 -89 15 -89 10 0 15 10 15 30 0 28 1 29 25 18 58
-26 112 65 66 111 -16 16 -33 20 -71 20 l-50 -2 0 -88z m105 27 c0 -52 -63
-62 -73 -12 -7 33 6 47 40 44 29 -3 33 -7 33 -32z"/>
<path d="M1916 1242 c-20 -23 -21 -85 -1 -102 14 -11 39 -14 98 -10 14 1 17
11 17 63 l0 63 -49 2 c-36 1 -52 -3 -65 -16z m85 -33 c14 -27 -6 -59 -37 -59
-17 0 -28 8 -36 26 -11 23 -10 29 10 45 26 20 48 16 63 -12z"/>
<path d="M295 911 c-18 -31 86 -244 173 -352 149 -185 354 -309 576 -348 77
-14 245 -14 322 0 279 49 540 243 675 501 53 104 82 189 69 202 -19 19 -40 -7
-74 -90 -188 -461 -694 -688 -1146 -513 -161 62 -318 184 -409 317 -43 63
-113 198 -126 242 -13 44 -44 66 -60 41z"/>
<path d="M780 791 l0 -41 40 0 41 0 -4 38 c-4 35 -6 37 -41 40 l-36 3 0 -40z
m50 19 c0 -5 -7 -10 -15 -10 -8 0 -15 5 -15 10 0 6 7 10 15 10 8 0 15 -4 15
-10z m10 -35 c0 -8 -9 -15 -20 -15 -11 0 -20 7 -20 15 0 8 9 15 20 15 11 0 20
-7 20 -15z"/>
<path d="M1190 811 c0 -11 -4 -22 -10 -26 -20 -12 3 -35 36 -35 27 0 34 4 34
20 0 11 -6 20 -14 20 -9 0 -12 7 -9 20 4 15 0 20 -16 20 -14 0 -21 -6 -21 -19z
m25 -41 c3 -5 2 -10 -4 -10 -5 0 -13 5 -16 10 -3 6 -2 10 4 10 5 0 13 -4 16
-10z"/>
<path d="M1320 790 c0 -22 5 -40 10 -40 6 0 10 9 10 20 0 13 7 20 20 20 13 0
20 -7 20 -20 0 -11 5 -20 10 -20 6 0 10 18 10 40 0 22 -4 40 -10 40 -5 0 -10
-7 -10 -15 0 -8 -9 -15 -20 -15 -11 0 -20 7 -20 15 0 8 -4 15 -10 15 -5 0 -10
-18 -10 -40z"/>
<path d="M874 795 c-10 -25 4 -45 31 -45 17 0 25 6 25 18 1 16 1 16 11 0 22
-38 76 -12 62 30 -6 15 -45 16 -61 0 -9 -9 -12 -9 -12 0 0 17 -50 15 -56 -3z"/>
<path d="M1020 780 c0 -16 5 -30 10 -30 6 0 10 9 10 19 0 11 5 23 11 27 8 5
10 -1 7 -20 -5 -23 -2 -26 22 -26 38 0 45 11 18 32 -15 12 -17 16 -5 12 9 -3
17 -1 17 5 0 6 -19 11 -45 11 -43 0 -45 -1 -45 -30z"/>
<path d="M1410 780 c0 -28 3 -30 35 -30 19 0 35 5 35 11 0 5 4 8 10 4 5 -3 7
-12 3 -20 -4 -11 3 -15 26 -15 17 0 31 5 31 10 0 6 15 10 33 10 45 0 53 10 25
32 -15 12 -17 16 -5 12 9 -3 17 -1 17 5 0 6 -11 11 -24 11 -19 0 -26 -6 -29
-27 l-4 -28 -2 28 c-1 23 -5 27 -29 27 -15 0 -33 -5 -40 -12 -9 -9 -12 -9 -12
0 0 21 -18 13 -22 -10 -5 -32 -28 -35 -28 -4 0 14 -4 26 -10 26 -5 0 -10 -13
-10 -30z m126 9 c3 -6 1 -16 -5 -22 -9 -9 -14 -8 -21 3 -9 15 -4 30 10 30 5 0
12 -5 16 -11z"/>
<path d="M680 620 c0 -7 187 -10 540 -10 353 0 540 3 540 10 0 7 -187 10 -540
10 -353 0 -540 -3 -540 -10z"/>
<path d="M1050 519 c0 -6 9 -8 20 -4 27 9 26 -12 -2 -42 l-21 -23 39 1 c31 1
34 2 15 8 -21 6 -22 8 -7 20 9 7 16 22 16 32 0 14 -7 19 -30 19 -16 0 -30 -5
-30 -11z"/>
<path d="M1134 516 c-12 -32 0 -61 28 -64 34 -4 54 27 38 58 -12 23 -58 27
-66 6z m44 -43 c-16 -15 -18 -15 -24 0 -3 9 -3 25 0 34 6 15 8 15 24 0 15 -16
15 -18 0 -34z"/>
<path d="M1220 519 c0 -6 9 -8 20 -4 27 9 26 -12 -2 -42 l-21 -23 39 1 c31 1
34 2 15 8 -21 6 -22 8 -7 20 9 7 16 22 16 32 0 14 -7 19 -30 19 -16 0 -30 -5
-30 -11z"/>
<path d="M1304 516 c-12 -32 0 -61 28 -64 34 -4 54 27 38 58 -12 23 -58 27
-66 6z m44 -43 c-16 -15 -18 -15 -24 0 -3 9 -3 25 0 34 6 15 8 15 24 0 15 -16
15 -18 0 -34z"/>
</g>
</svg>
